<?xml version="1.0" ?><svg width="7.4083335px" height="7.4083335px" viewBox="-0.57 0 7.4083335 7.4083335" id="svg8" version="1.1" xmlns="http://www.w3.org/2000/svg" xmlnsCc="http://creativecommons.org/ns#" xmlnsDc="http://purl.org/dc/elements/1.1/" xmlnsRdf="http://www.w3.org/1999/02/22-rdf-syntax-ns#" xmlnsSvg="http://www.w3.org/2000/svg"><defs id="defs2"/><g id="layer1" transform="translate(-33.427884,-320.81249)"><path d="m 133,122 a 1.0001001,1.0001001 0 0 0 -0.99609,0.99609 l -0.008,4.00196 a 1.0002463,1.0002463 0 1 0 2,0 V 124 H 148 v 24 h -14.00391 v -2.99805 a 1.0002463,1.0002463 0 1 0 -2,0 l 0.008,4.00196 A 1.0001001,1.0001001 0 0 0 133,150 h 16.00391 A 1.0001001,1.0001001 0 0 0 150,149.00391 V 122.99609 A 1.0001001,1.0001001 0 0 0 149.00391,122 Z m -0.008,7.3457 c -3.65973,0 -6.65039,2.99068 -6.65039,6.65039 0,3.65976 2.99066,6.64453 6.65039,6.64453 3.65973,0 6.64453,-2.98477 6.64453,-6.64453 0,-3.65971 -2.9848,-6.65039 -6.64453,-6.65039 z m 0,2 c 2.57885,0 4.64258,2.07155 4.64258,4.65039 0,2.57889 -2.06373,4.64258 -4.64258,4.64258 -2.57885,0 -4.65039,-2.06369 -4.65039,-4.64258 0,-2.57884 2.07154,-4.65039 4.65039,-4.65039 z M 129.99414,135 a 1.000252,1.000252 0 1 0 0,2 h 6.00195 a 1.000252,1.000252 0 1 0 0,-2 z" id="icon-19" style="color:#000000;font-style:normal;font-variant:normal;font-weight:normal;font-stretch:normal;font-size:medium;line-height:normal;font-family:sans-serif;font-variant-ligatures:normal;font-variant-position:normal;font-variant-caps:normal;font-variant-numeric:normal;font-variant-alternates:normal;font-feature-settings:normal;text-indent:0;text-align:start;text-decoration:none;text-decoration-line:none;text-decoration-style:solid;text-decoration-color:#000000;letter-spacing:normal;word-spacing:normal;text-transform:none;writing-mode:lr-tb;direction:ltr;text-orientation:mixed;dominant-baseline:auto;baseline-shift:baseline;text-anchor:start;white-space:normal;shape-padding:0;clip-rule:nonzero;display:inline;overflow:visible;visibility:visible;opacity:1;isolation:auto;mix-blend-mode:normal;color-interpolation:sRGB;color-interpolation-filters:linearRGB;solid-color:#000000;solid-opacity:1;vector-effect:none;fill:#000000;fill-opacity:1;fill-rule:nonzero;stroke:none;stroke-width:2;stroke-linecap:round;stroke-linejoin:round;stroke-miterlimit:4;stroke-dasharray:none;stroke-dashoffset:0;stroke-opacity:1;color-rendering:auto;image-rendering:auto;shape-rendering:auto;text-rendering:auto;enable-background:accumulate" transform="matrix(0.26458333,0,0,0.26458333,0,288.53332)"/></g></svg>